<?xml version="1.0" standalone="no"?>
<!DOCTYPE svg PUBLIC "-//W3C//DTD SVG 20010904//EN"
 "http://www.w3.org/TR/2001/REC-SVG-20010904/DTD/svg10.dtd">
<svg version="1.0" xmlns="http://www.w3.org/2000/svg"
 width="580.000000pt" height="386.000000pt" viewBox="0 0 580.000000 386.000000"
 preserveAspectRatio="xMidYMid meet">

<g transform="translate(0.000000,386.000000) scale(0.100000,-0.100000)"
fill="#818cf8" stroke="none">
<path d="M2600 3406 c-10 -13 -7 -15 16 -13 49 3 40 -26 -24 -79 -88 -74 -122
-119 -122 -163 0 -44 35 -83 74 -83 36 0 52 16 71 72 9 27 29 63 45 80 38 41
72 40 117 -5 29 -29 34 -40 28 -63 -9 -38 -49 -75 -129 -119 -109 -59 -131
-120 -70 -193 52 -61 129 -49 224 36 33 30 69 54 78 54 69 0 50 -125 -45 -293
-51 -92 -46 -89 -138 -71 -261 50 -453 19 -554 -91 -36 -39 -41 -51 -41 -91 0
-39 5 -51 31 -75 79 -74 260 -75 411 -2 57 27 92 54 162 125 l90 91 43 -12
c124 -32 262 -131 302 -214 32 -66 29 -149 -9 -224 -42 -84 -46 -86 -122 -73
-180 31 -483 33 -674 5 -351 -53 -644 -200 -644 -325 0 -32 50 -77 101 -90 26
-8 108 -12 204 -12 200 1 347 25 535 88 215 71 375 154 502 257 l58 47 72 -15
c186 -39 335 -101 387 -160 25 -29 31 -44 31 -82 0 -39 -5 -50 -34 -77 -44
-43 -158 -97 -281 -135 -206 -63 -351 -83 -603 -82 -238 1 -423 28 -619 89
-62 19 -90 12 -35 -9 64 -25 320 -78 429 -90 145 -15 474 -6 590 15 264 49
465 127 538 208 67 73 39 166 -70 228 -68 39 -193 82 -306 106 -46 10 -86 19
-88 21 -2 1 3 11 11 20 59 68 82 186 53 274 -33 99 -153 193 -312 244 l-52 17
35 61 c104 183 131 307 73 338 -31 16 -57 5 -128 -55 -67 -58 -102 -72 -150
-61 -37 8 -60 34 -67 76 -8 46 21 81 97 119 32 17 74 46 94 65 29 30 35 43 35
79 0 37 -5 49 -30 69 -36 31 -82 42 -109 28 -28 -15 -66 -68 -82 -114 -19 -55
-43 -73 -74 -59 -14 7 -30 24 -35 38 -16 40 14 89 96 157 79 67 99 101 69 123
-24 18 -39 18 -55 0z m128 -857 c36 -7 62 -18 62 -25 0 -7 -33 -45 -73 -86
-79 -80 -160 -129 -252 -153 -159 -41 -319 7 -319 97 0 66 60 124 172 165 62
22 77 24 207 19 77 -2 168 -10 203 -17z m199 -554 c81 -9 149 -18 151 -20 16
-16 -113 -109 -242 -175 -255 -129 -494 -194 -761 -207 -215 -10 -335 24 -335
93 0 45 81 118 194 173 257 127 612 176 993 136z"/>
<path d="M1686 1598 c16 -75 99 -301 150 -407 126 -266 340 -513 517 -597 20
-10 46 -33 57 -50 63 -108 387 -136 567 -48 51 24 79 66 67 97 -3 8 25 32 70
60 41 26 98 73 128 105 74 81 191 256 242 362 40 85 48 94 182 215 160 145
220 180 290 172 124 -14 180 -140 118 -265 -51 -102 -128 -144 -287 -157 -145
-11 -247 -70 -293 -169 -28 -60 -29 -77 -9 -121 27 -56 86 -70 131 -32 29 25
35 66 14 92 -14 17 -50 20 -50 5 0 -5 9 -10 19 -10 11 0 22 -9 26 -20 15 -48
-45 -86 -94 -59 -59 34 -48 121 26 200 57 61 124 87 255 99 112 9 165 30 223
88 94 93 111 233 37 316 -24 27 -91 56 -133 56 -69 0 -124 -37 -337 -227 l-59
-52 33 88 c98 259 24 253 -221 -20 -193 -214 -268 -319 -250 -349 10 -16 53
-11 98 11 52 27 178 110 234 155 23 19 44 34 47 34 12 0 -62 -135 -119 -220
-88 -130 -151 -205 -203 -243 -47 -34 -112 -71 -115 -65 -48 98 -70 114 -132
97 -73 -21 -131 -106 -92 -137 23 -19 75 -23 137 -12 34 6 65 9 68 5 14 -14
-16 -61 -52 -81 -60 -34 -149 -49 -286 -48 -107 0 -132 3 -175 23 -48 21 -95
57 -95 71 0 4 21 13 46 20 93 26 227 137 260 215 22 53 18 102 -11 130 -33 34
-78 32 -140 -4 -62 -36 -104 -79 -149 -155 -29 -49 -36 -70 -36 -113 0 -29 -2
-53 -5 -53 -18 0 -93 47 -156 98 -154 121 -300 323 -399 548 -44 100 -131 346
-125 353 2 2 18 -7 34 -19 61 -43 278 -139 393 -174 200 -60 333 -79 568 -80
153 0 230 4 305 17 54 10 101 20 104 22 13 14 -14 13 -95 -2 -68 -14 -142 -18
-319 -17 -211 0 -240 2 -360 28 -224 47 -417 120 -586 222 -31 19 -60 34 -64
34 -3 0 -3 -15 1 -32z m1914 -113 c0 -39 -78 -247 -103 -273 -37 -39 -157
-128 -246 -181 -78 -47 -131 -64 -131 -42 0 43 326 421 424 493 48 34 56 35
56 3z m-898 -572 c22 -20 24 -73 2 -118 -37 -78 -204 -205 -270 -205 -43 0
-38 93 9 172 30 51 109 130 152 152 39 21 84 20 107 -1z m266 -189 c25 -7 52
-51 52 -83 0 -14 -9 -23 -27 -28 -46 -12 -141 -9 -154 4 -21 21 2 65 46 90 44
25 49 26 83 17z"/>
</g>
</svg>
