<?xml version="1.0" standalone="no"?>
<!DOCTYPE svg PUBLIC "-//W3C//DTD SVG 20010904//EN"
 "http://www.w3.org/TR/2001/REC-SVG-20010904/DTD/svg10.dtd">
<svg version="1.0" xmlns="http://www.w3.org/2000/svg"
 width="1000.000000pt" height="709.000000pt" viewBox="0 0 1000.000000 709.000000"
 preserveAspectRatio="xMidYMid meet">

<g transform="translate(0.000000,709.000000) scale(0.100000,-0.100000)"
fill="#818cf8" stroke="none">
<path d="M6624 6536 c-94 -29 -334 -226 -379 -310 -18 -33 -42 -52 -52 -42 -8
8 55 121 81 145 50 47 -8 57 -91 15 -120 -59 -376 -391 -431 -558 -29 -89 -44
-232 -46 -436 -2 -248 24 -334 138 -460 85 -94 100 -132 94 -242 -5 -90 -28
-144 -133 -302 -42 -64 -91 -149 -109 -189 -29 -68 -31 -79 -32 -197 l0 -125
-63 -124 c-74 -147 -177 -314 -432 -697 -271 -409 -379 -595 -395 -680 -24
-129 195 -424 316 -424 11 0 20 -4 20 -8 0 -5 -32 -42 -70 -84 -98 -107 -190
-149 -204 -93 -10 37 -64 94 -123 127 -74 41 -103 82 -144 194 -50 141 -85
172 -167 143 -27 -9 -37 -7 -76 16 -46 27 -46 27 -218 22 -151 -3 -178 -7
-214 -25 -55 -28 -90 -72 -109 -135 -34 -114 -32 -167 5 -147 18 10 20 8 20
-24 0 -46 16 -85 48 -120 29 -31 115 -76 146 -76 10 0 34 -16 53 -35 44 -46
92 -69 178 -88 111 -24 162 -28 526 -37 204 -5 360 -13 384 -20 84 -24 82 -59
-4 -80 -39 -9 -64 -8 -132 5 -188 36 -524 29 -737 -15 -73 -14 -100 -16 -125
-8 -18 6 -34 12 -35 14 -2 1 11 16 30 33 l33 30 -21 21 c-13 13 -43 25 -86 32
-75 12 -98 7 -98 -21 0 -20 62 -81 83 -81 7 0 6 -4 -3 -10 -8 -5 -34 -10 -57
-10 -56 0 -99 38 -146 127 -41 79 -291 698 -553 1366 -101 258 -192 483 -203
501 -42 67 -118 124 -211 157 l-65 23 -860 -3 c-668 -2 -867 -6 -891 -16 -72
-30 -82 -144 -26 -310 33 -98 211 -528 508 -1224 170 -399 194 -450 237 -497
62 -68 129 -110 225 -141 67 -21 148 -31 602 -69 513 -43 608 -49 599 -39 -3
2 -138 23 -300 45 -659 91 -858 127 -944 169 -85 42 -127 81 -162 148 -29 55
-170 387 -529 1246 -153 367 -171 424 -145 465 6 10 167 13 826 12 806 0 818
-1 866 -21 57 -25 127 -96 162 -165 14 -27 172 -407 352 -844 434 -1055 413
-1005 446 -1041 16 -18 28 -33 27 -34 -8 -7 -215 -69 -293 -88 -90 -21 -93
-21 -1803 -24 -1110 -2 -1712 -7 -1712 -13 0 -7 577 -10 1648 -10 1758 0 1747
0 1939 49 45 12 118 34 163 50 69 24 83 26 98 15 44 -35 142 -54 271 -54 285
0 885 77 1024 132 34 13 35 43 1 61 l-26 13 40 12 c72 22 90 69 34 91 -66 26
-149 33 -482 41 -452 11 -557 29 -635 110 -28 29 -28 30 -6 30 29 0 63 18 56
31 -9 14 -67 11 -85 -6 -15 -13 -22 -13 -64 -1 -52 16 -109 55 -128 89 -7 12
-15 47 -18 77 -5 55 -8 58 -44 44 -16 -6 -18 -3 -11 27 27 135 59 193 124 226
25 13 46 21 48 19 3 -2 -8 -16 -22 -30 -48 -48 -79 -132 -80 -216 0 -86 18
-125 62 -136 44 -11 58 19 71 145 11 111 28 168 57 197 9 9 13 24 10 35 -6 17
-1 19 34 19 40 0 55 -15 27 -26 -44 -17 -96 -150 -96 -243 0 -111 34 -166 97
-159 39 4 50 34 61 166 8 96 14 118 36 150 30 44 33 68 9 94 -15 17 -15 18 11
18 28 0 90 -23 112 -41 9 -8 2 -20 -31 -53 -74 -74 -109 -220 -90 -372 6 -47
13 -64 40 -91 18 -18 42 -33 52 -33 39 0 52 31 63 150 7 90 15 125 35 163 32
62 32 110 0 173 -14 27 -25 50 -25 51 0 1 16 5 35 9 75 14 99 -10 140 -136 37
-114 75 -164 156 -205 49 -25 109 -86 109 -110 0 -20 -1 -20 -70 15 -66 33
-124 39 -169 15 -82 -42 -16 -121 109 -132 65 -6 125 10 140 37 5 10 24 21 42
25 57 12 114 52 187 132 39 42 71 80 71 85 0 4 8 8 18 8 23 0 45 15 223 155
253 199 356 312 380 420 10 46 9 57 -9 98 -36 81 -88 73 -181 -29 -62 -68
-136 -173 -305 -436 -70 -109 -133 -198 -140 -198 -53 0 -140 57 -207 136 -57
68 -119 197 -119 248 1 87 81 230 412 731 282 428 333 510 410 665 56 110 69
131 74 112 4 -13 22 -55 41 -94 l34 -72 -35 -95 c-78 -213 -117 -390 -118
-531 -1 -74 3 -95 26 -145 15 -33 34 -67 42 -76 8 -9 28 -53 43 -97 16 -44 45
-105 66 -136 35 -53 149 -166 167 -166 19 0 6 -16 -24 -29 -50 -22 -119 -91
-141 -141 -15 -33 -20 -65 -19 -123 3 -238 139 -407 377 -472 93 -25 277 -31
352 -12 155 40 274 137 351 284 53 102 81 208 89 338 10 176 -24 266 -120 311
-66 30 -129 31 -290 3 -290 -51 -613 26 -783 187 -25 24 -32 40 -38 89 -6 60
4 177 25 271 l12 52 28 -16 c59 -35 127 29 170 159 28 87 33 225 11 324 l-14
60 80 165 c81 168 124 230 160 230 39 0 45 -23 28 -102 -9 -40 -15 -97 -13
-126 2 -64 -15 -82 -80 -82 -24 0 -43 -4 -43 -9 0 -11 80 -51 102 -51 31 0 75
48 88 96 17 58 23 45 39 -81 7 -49 21 -128 32 -175 76 -326 299 -455 574 -330
55 24 103 63 161 131 12 13 40 39 63 57 23 18 50 51 61 72 20 40 27 100 11
100 -11 0 -47 -48 -102 -137 -36 -60 -52 -76 -89 -92 -116 -50 -270 -67 -358
-41 -59 18 -116 71 -149 137 -23 48 -28 73 -31 155 -5 111 4 188 21 193 7 1
34 9 62 16 87 23 169 120 150 179 -5 16 5 33 43 73 78 84 89 117 35 117 -37 0
-90 -57 -98 -106 -10 -62 -12 -63 -67 -89 -58 -27 -92 -31 -147 -14 -47 14
-108 -1 -151 -38 -17 -14 -32 -24 -33 -22 -14 19 -37 126 -33 145 6 24 30 32
41 14 12 -19 144 -52 180 -46 46 9 69 43 56 80 -29 75 -169 89 -238 24 -21
-19 -25 -20 -49 -7 -36 19 -107 100 -132 150 l-20 41 34 45 c40 53 45 104 14
171 -25 54 -55 57 -76 7 -17 -41 -18 -96 -3 -164 l11 -50 -52 -63 c-28 -35
-67 -95 -86 -135 -32 -63 -41 -73 -80 -88 -29 -11 -64 -39 -107 -86 l-64 -69
-7 58 c-13 121 25 221 164 433 155 237 161 373 25 518 -108 114 -145 225 -145
439 0 157 17 351 36 421 33 116 121 256 269 430 40 47 83 96 96 108 29 25 93
58 133 67 l28 7 -35 -41 c-19 -23 -46 -67 -58 -98 -12 -32 -40 -77 -61 -101
-74 -86 -126 -227 -107 -293 7 -27 3 -36 -36 -85 -25 -30 -47 -70 -51 -90 -12
-61 4 -166 49 -320 l43 -148 67 -66 c67 -64 67 -65 67 -119 0 -30 -9 -88 -20
-129 -19 -72 -19 -76 -2 -110 15 -32 36 -50 97 -86 11 -7 19 -29 23 -65 7 -55
18 -67 75 -84 12 -4 17 -16 17 -39 0 -35 25 -67 52 -67 23 0 45 -30 58 -80 45
-170 166 -184 380 -46 180 117 336 257 410 368 l44 67 32 -67 c84 -173 207
-242 349 -194 135 45 133 45 184 8 83 -61 221 -84 221 -37 0 43 -83 81 -184
86 -65 4 -73 7 -97 34 -35 42 -106 190 -120 248 -7 31 -8 96 -4 184 9 171 -3
235 -51 289 -33 36 -34 40 -34 118 0 100 -15 175 -46 228 -33 58 -72 74 -178
74 l-86 0 -97 101 c-98 101 -213 187 -307 228 -90 39 -188 57 -416 76 -67 6
-78 10 -113 41 -21 19 -51 37 -67 41 -17 3 -30 12 -30 19 0 42 243 253 348
301 138 64 360 28 641 -103 300 -140 458 -327 533 -631 18 -71 21 -114 20
-228 -1 -93 4 -162 14 -205 16 -72 105 -263 174 -375 46 -75 102 -187 96 -192
-2 -2 -33 16 -69 41 -108 76 -188 104 -200 72 -14 -35 113 -224 184 -276 46
-33 99 -40 119 -15 7 9 13 36 12 61 l0 46 30 -28 c81 -78 171 -247 237 -447
35 -104 78 -177 124 -211 22 -16 47 -22 111 -24 79 -4 84 -3 103 22 l21 26 15
-33 c38 -79 -8 -109 -173 -115 -88 -3 -130 0 -180 13 -36 10 -114 20 -175 24
l-110 7 53 12 c29 6 72 12 96 12 53 0 79 18 74 51 -4 32 -83 72 -198 100 l-86
21 4 33 c7 63 -26 135 -93 202 -87 87 -135 94 -226 33 -38 -25 -62 -32 -134
-39 -96 -10 -125 -24 -162 -82 -35 -55 -50 -67 -95 -79 -55 -15 -112 -70 -135
-129 -26 -68 -23 -221 7 -331 50 -186 27 -368 -130 -1000 -37 -151 -75 -318
-84 -370 -57 -346 -9 -703 146 -1075 30 -73 37 -82 78 -102 25 -12 80 -27 123
-32 106 -15 2637 -15 2637 -1 0 7 -443 10 -1307 10 -1379 0 -1399 1 -1466 45
-46 30 -160 365 -199 585 -17 100 -17 460 0 560 8 41 47 212 88 380 154 627
179 810 133 980 -27 100 -36 264 -19 327 19 68 70 120 136 139 52 15 94 51 94
79 0 17 55 64 83 70 12 3 55 9 95 14 54 7 85 17 121 40 64 41 113 42 168 2 75
-54 123 -137 123 -211 l0 -40 -65 0 c-56 0 -65 -3 -65 -18 0 -44 68 -57 112
-22 25 19 25 19 115 -4 137 -34 214 -79 186 -107 -4 -4 -47 -12 -94 -17 -55
-6 -106 -19 -140 -35 -30 -13 -65 -28 -79 -32 -51 -15 -105 -48 -154 -95 -44
-40 -85 -70 -98 -70 -2 0 -4 23 -3 51 0 63 -21 85 -54 55 -29 -26 -27 -71 3
-101 l25 -25 -42 -107 c-41 -106 -41 -111 -42 -233 0 -117 2 -133 39 -250 21
-69 42 -129 47 -134 15 -16 26 35 38 174 26 286 52 401 107 465 18 21 24 24
19 10 -28 -77 -37 -141 -45 -326 -10 -218 -13 -235 -84 -422 -14 -37 -26 -82
-26 -100 0 -18 16 -87 35 -154 68 -237 89 -391 74 -551 -10 -106 -31 -172
-159 -502 -97 -248 -104 -270 -95 -270 9 0 72 49 148 114 240 206 486 651 686
1239 32 95 92 255 134 357 41 102 92 237 113 300 33 101 38 127 38 215 1 82
-3 108 -20 146 -27 58 -87 119 -155 158 l-52 29 96 0 c151 0 213 38 193 117
-4 15 -22 43 -41 63 l-34 37 6 -37 c5 -34 3 -38 -23 -49 -38 -15 -127 -5 -167
18 -48 29 -80 85 -132 233 -71 204 -128 308 -227 415 -35 39 -69 90 -95 145
-22 47 -65 129 -97 183 -61 104 -112 210 -142 292 -13 37 -19 99 -25 240 -7
200 -21 278 -73 405 -54 135 -168 278 -290 364 -124 89 -347 187 -511 227 -93
22 -248 25 -311 5z m-305 -385 c41 -29 37 -40 -11 -30 -48 11 -68 25 -68 46 0
19 44 10 79 -16z m-96 5 c10 -24 53 -47 103 -54 45 -7 50 -10 80 -63 107 -183
378 -308 754 -349 57 -6 107 -13 111 -16 4 -2 29 -43 56 -90 51 -92 134 -190
202 -239 l42 -30 -6 -60 c-21 -212 -127 -445 -202 -445 -22 0 -24 3 -19 23 24
82 29 126 17 141 -19 23 -28 20 -47 -15 -15 -31 -16 -95 -1 -129 8 -17 -8 -48
-19 -37 -4 4 -8 45 -8 90 -1 94 5 107 111 238 65 81 97 149 88 189 -15 66
-145 175 -202 168 -28 -3 -29 -4 -94 -122 -15 -27 -24 -67 -29 -128 -4 -49
-10 -92 -14 -95 -4 -4 -16 3 -26 17 -18 24 -140 288 -140 303 0 4 22 7 48 7
63 0 145 25 176 53 37 34 41 60 12 94 -20 23 -32 28 -70 27 -65 -1 -133 -45
-164 -107 -29 -56 -42 -58 -167 -28 -184 45 -335 110 -425 185 -63 53 -119 75
-210 82 -70 6 -133 22 -128 32 26 53 43 98 77 207 44 141 77 195 94 151z
m-110 -148 c-50 -163 -57 -181 -72 -186 -22 -7 -7 98 24 166 22 49 73 132 80
132 1 0 -13 -51 -32 -112z m574 57 c114 -18 201 -52 301 -118 77 -50 205 -166
245 -221 l21 -29 -80 7 c-260 23 -535 118 -658 228 -46 41 -116 134 -116 155
0 8 178 -5 287 -22z m-577 -306 c19 -5 54 -9 77 -9 61 0 140 -33 202 -84 29
-24 83 -58 119 -76 92 -45 285 -108 373 -121 l74 -12 69 -149 c72 -156 98
-198 122 -198 16 0 21 19 28 117 6 71 30 153 46 153 4 0 10 -22 14 -49 10 -79
67 -148 104 -125 13 9 17 25 17 75 0 76 -28 126 -76 136 -40 8 -35 37 6 41 66
6 185 -105 185 -173 0 -35 -33 -92 -110 -186 -84 -103 -93 -128 -88 -228 3
-47 8 -93 12 -102 9 -21 -76 -149 -145 -218 -157 -156 -399 -317 -507 -337
-67 -13 -130 38 -157 128 -18 61 -29 75 -71 93 -33 14 -46 39 -41 79 1 14 -8
22 -38 30 -41 12 -46 20 -60 108 -5 31 -11 38 -40 48 -37 12 -85 62 -85 88 0
9 10 60 22 114 29 127 20 158 -65 239 -45 43 -64 70 -73 101 -61 225 -74 285
-74 349 0 75 6 93 53 152 23 30 34 36 51 31 11 -4 37 -11 56 -15z m1353 -83
c75 -32 107 -107 107 -252 l0 -96 -61 53 c-70 61 -121 124 -177 224 l-40 70
52 6 c28 3 59 6 69 7 10 1 32 -4 50 -12z m-263 -74 c54 -44 -8 -101 -131 -122
-91 -14 -92 -14 -85 16 23 91 155 156 216 106z m121 -236 c41 -67 33 -169 -11
-146 -30 16 -49 51 -62 114 -9 46 -9 59 2 66 21 13 51 -1 71 -34z m291 -93
c40 -46 43 -65 48 -283 l5 -215 38 -79 c20 -43 53 -100 72 -127 25 -35 31 -49
20 -49 -9 0 -48 -11 -87 -25 -93 -33 -150 -32 -217 1 -93 46 -197 209 -175
273 8 21 16 26 41 26 87 0 198 216 219 425 3 39 10 70 14 70 4 0 14 -8 22 -17z
m-259 -315 c5 -17 -12 -90 -24 -102 -10 -11 -13 72 -3 98 7 19 21 21 27 4z
m567 -108 c30 -15 83 -49 117 -74 55 -42 63 -52 68 -90 13 -85 -16 -111 -84
-77 -56 29 -180 190 -197 255 -6 26 -5 28 17 21 13 -4 49 -20 79 -35z m-1788
-348 c10 -29 15 -64 12 -80 -7 -36 -49 -90 -61 -79 -13 13 -16 159 -4 190 15
40 33 29 53 -31z m1855 -7 c27 -8 58 -24 68 -35 16 -18 17 -20 1 -26 -42 -16
-163 21 -195 60 -12 14 -8 16 31 16 24 0 67 -7 95 -15z m-1879 -248 c17 -29
56 -77 87 -105 38 -35 55 -58 51 -68 -5 -12 -10 -11 -36 8 -29 21 -33 21 -58
8 -39 -22 -91 -106 -157 -252 -32 -71 -60 -128 -64 -128 -8 0 -37 81 -45 127
-4 27 3 45 43 105 38 56 47 77 40 90 -5 10 -19 18 -29 18 -11 0 -20 3 -20 8 1
24 141 242 156 242 1 0 16 -24 32 -53z m692 -91 c0 -8 -22 -39 -50 -68 -45
-49 -49 -51 -50 -28 0 33 34 88 63 100 31 12 37 12 37 -4z m-315 -20 c34 -22
44 -65 19 -83 -26 -20 -106 -12 -172 17 -45 19 -50 25 -40 38 40 48 140 63
193 28z m1529 -15 c17 -6 15 -9 -12 -20 -36 -15 -62 -9 -62 14 0 16 40 20 74
6z m-2070 -87 c9 -3 16 -10 16 -15 0 -7 -56 -86 -75 -107 -4 -5 2 26 17 86 11
43 15 46 42 36z m-59 -31 c-4 -16 -11 -53 -15 -83 -9 -71 -98 -261 -111 -238
-5 8 -22 50 -39 92 l-31 77 20 32 c25 41 86 99 131 126 46 28 54 26 45 -6z
m374 -151 c-23 -98 -73 -143 -125 -114 -15 8 -12 11 15 17 45 10 58 38 64 140
7 128 16 144 40 71 18 -53 18 -64 6 -114z m431 123 c0 -71 -92 -155 -169 -155
-24 0 -28 3 -24 20 8 29 -23 70 -51 70 -55 0 -59 -68 -5 -95 22 -12 29 -21 24
-33 -4 -9 -10 -58 -12 -108 -11 -195 61 -334 197 -379 72 -24 198 -16 300 18
41 14 77 23 80 20 9 -9 -68 -69 -124 -96 -112 -55 -250 -62 -339 -17 -100 50
-189 184 -222 334 -9 39 -24 130 -35 201 l-19 130 36 32 c44 40 87 49 161 34
60 -13 114 -2 165 34 30 21 37 19 37 -10z m1660 -71 c56 -9 50 -20 -15 -28
-83 -9 -231 -60 -307 -105 -38 -22 -68 -37 -68 -35 0 11 88 140 106 156 10 9
37 19 59 21 45 5 164 1 225 -9z m-1882 -16 c17 -17 15 -68 -2 -68 -35 0 -63
62 -33 73 19 8 22 8 35 -5z m1538 -45 c-18 -27 -44 -68 -56 -93 -13 -25 -40
-64 -60 -88 -21 -23 -46 -59 -55 -78 -26 -56 -53 -202 -69 -388 -9 -93 -17
-171 -19 -173 -8 -7 -68 214 -79 290 -14 95 4 200 56 326 29 71 39 86 67 98
18 7 57 36 86 64 48 46 120 88 150 89 7 0 -2 -21 -21 -47z m526 -4 c55 -27
124 -93 149 -142 65 -125 41 -254 -118 -647 -41 -102 -104 -270 -140 -375
-188 -552 -392 -937 -615 -1164 -74 -76 -168 -155 -174 -148 -3 2 36 107 85
233 116 299 138 365 152 455 24 155 -4 380 -77 618 -15 47 -27 104 -27 126 1
23 21 93 48 165 l47 125 9 196 c7 189 22 287 54 374 32 86 253 189 458 214 66
8 81 5 149 -30z m-2631 -104 l20 -51 -32 -69 c-17 -38 -35 -81 -41 -95 -9 -23
-12 -20 -39 52 l-30 77 43 96 c40 91 43 95 51 68 5 -15 17 -51 28 -78z m1854
94 c4 -6 4 -26 0 -45 -7 -42 -34 -43 -49 -2 -14 40 29 81 49 47z m-1807 -314
c2 -56 -1 -125 -7 -155 -14 -65 -54 -156 -83 -187 -24 -26 -65 -30 -93 -9 -17
12 -18 18 -7 40 6 14 18 26 27 26 30 0 57 78 60 170 2 68 8 97 29 145 15 33
32 71 38 85 9 24 10 24 20 5 7 -11 13 -65 16 -120z m-129 -35 c1 -14 -15 -74
-35 -133 l-36 -108 -35 21 c-20 11 -38 18 -41 16 -3 -3 9 -28 26 -56 l32 -51
-16 -67 c-9 -37 -19 -119 -23 -182 l-6 -115 -30 60 c-28 55 -30 68 -30 165 1
123 26 252 87 433 58 175 57 174 84 102 13 -33 23 -71 23 -85z m-2974 95 c82
-22 150 -61 199 -116 35 -39 57 -85 140 -300 189 -486 604 -1516 641 -1590 43
-86 96 -145 137 -154 16 -4 51 -2 78 5 39 9 53 9 75 -3 l27 -14 -63 -17 c-35
-10 -104 -33 -153 -52 -49 -19 -97 -32 -106 -29 -26 8 -65 70 -98 155 -147
370 -720 1745 -743 1781 -38 60 -95 116 -144 142 -40 22 -42 22 -865 25 -709
2 -828 0 -845 -12 -16 -12 -20 -25 -18 -73 1 -52 30 -127 266 -688 428 -1020
414 -989 458 -1039 28 -31 67 -59 122 -86 92 -45 184 -64 592 -124 127 -19
219 -35 205 -35 -65 -2 -642 52 -695 65 -100 25 -181 68 -244 131 l-57 58
-226 530 c-466 1092 -508 1200 -508 1313 0 61 3 75 26 101 l26 31 321 3 c1084
9 1392 7 1452 -8z m4345 -56 c-11 -38 -53 -95 -81 -110 -16 -8 -13 2 17 48 20
32 42 66 48 76 17 27 25 20 16 -14z m-1365 -185 c-6 -40 -41 -101 -52 -90 -3
2 8 44 24 92 28 89 42 88 28 -2z m-101 -100 c9 -3 16 -12 16 -20 0 -20 -13
-17 -28 6 -13 22 -12 23 12 14z m61 -542 c55 -43 193 -106 290 -132 114 -32
347 -39 465 -15 188 38 295 16 347 -73 24 -41 28 -60 31 -147 13 -335 -137
-597 -388 -676 -126 -41 -341 -24 -478 37 -118 52 -197 135 -239 250 -30 84
-40 197 -23 259 16 57 73 123 138 158 l50 27 55 -25 c110 -51 281 -70 352 -41
78 33 14 95 -119 116 -72 11 -136 7 -229 -17 l-59 -14 -54 41 c-85 64 -153
159 -190 263 -10 30 -11 37 -1 30 6 -5 30 -24 52 -41z m-59 -107 c50 -121 -42
-254 -334 -482 -76 -58 -155 -121 -176 -140 -56 -47 -74 -43 -38 10 17 23 100
148 185 278 177 269 262 369 315 369 28 0 35 -5 48 -35z m618 -191 c40 -19 66
-48 54 -60 -40 -39 -292 -9 -377 45 -14 9 19 23 79 35 57 11 205 -1 244 -20z
m-2325 -193 c11 -7 10 -14 -7 -38 -27 -38 -39 -88 -51 -207 -10 -103 -24 -132
-55 -120 -46 18 -60 128 -29 225 12 36 33 70 63 101 48 50 56 54 79 39z m171
-6 c36 -19 37 -25 5 -73 -30 -45 -44 -107 -45 -188 0 -105 -31 -153 -79 -123
-31 20 -41 54 -41 139 0 102 26 175 80 224 46 42 42 41 80 21z m198 -82 c32
-64 33 -94 7 -151 -29 -62 -45 -144 -45 -228 0 -67 -13 -88 -51 -82 -12 2 -31
16 -43 31 -19 26 -21 42 -21 160 0 130 1 134 33 199 30 61 71 108 93 108 5 0
17 -17 27 -37z m359 -389 c37 -20 70 -38 73 -41 3 -3 -6 -13 -19 -24 -49 -40
-202 -18 -235 34 -12 19 15 54 48 60 48 10 67 5 133 -29z m-657 -4 c-20 -13
-43 -13 -35 0 3 6 16 10 28 10 18 0 19 -2 7 -10z m12 -190 c21 -6 40 -16 44
-22 8 -13 -40 -58 -61 -58 -17 0 -97 60 -103 78 -5 15 67 16 120 2z m893 -97
c33 -11 22 -12 -255 -33 -148 -11 -467 -12 -495 -1 -21 8 41 23 175 41 82 11
535 5 575 -7z m147 -50 l21 -21 -54 -17 c-130 -39 -545 -95 -860 -117 -195
-13 -272 -6 -356 32 l-48 22 53 24 c29 13 99 38 155 55 l102 30 113 -12 c124
-13 355 -6 592 16 186 18 255 15 282 -12z"/>
</g>
</svg>
