<?xml version="1.0" standalone="no"?>
<!DOCTYPE svg PUBLIC "-//W3C//DTD SVG 20010904//EN"
 "http://www.w3.org/TR/2001/REC-SVG-20010904/DTD/svg10.dtd">
<svg version="1.0" xmlns="http://www.w3.org/2000/svg"
 width="500.000000pt" height="500.000000pt" viewBox="0 0 500.000000 500.000000"
 preserveAspectRatio="xMidYMid meet">

<g transform="translate(0.000000,500.000000) scale(0.100000,-0.100000)"
fill="#818cf8" stroke="none">
<path d="M2404 3926 c-36 -16 -53 -36 -30 -36 8 0 18 4 21 10 3 5 24 14 46 20
91 25 177 -63 167 -169 -7 -73 -39 -114 -172 -219 -145 -116 -193 -164 -217
-217 -24 -51 -23 -80 1 -133 l20 -44 -26 -34 c-54 -70 -78 -214 -55 -331 7
-35 5 -45 -10 -59 -31 -28 -59 -98 -59 -146 0 -28 9 -62 24 -90 l24 -45 -157
-7 c-181 -8 -334 -22 -409 -37 -72 -14 -76 -27 -69 -209 18 -474 110 -748 318
-945 35 -33 75 -68 89 -77 24 -16 21 -17 -85 -17 -114 -1 -675 15 -804 23
l-73 5 28 -31 c112 -118 339 -241 543 -294 190 -49 310 -58 766 -58 706 0 910
29 1180 165 109 55 295 174 295 190 0 5 21 9 46 9 37 0 53 -6 80 -30 78 -68
205 -101 258 -67 18 12 32 14 57 7 29 -7 191 -29 337 -45 24 -3 42 0 42 5 0 6
-6 10 -12 10 -28 0 -267 30 -330 41 -55 10 -68 16 -72 34 -7 29 -52 53 -74 38
-26 -16 -20 -36 15 -54 41 -21 33 -29 -29 -29 -60 0 -106 19 -176 72 l-55 41
-456 -7 c-436 -6 -455 -5 -431 11 60 43 138 115 170 157 30 39 40 45 71 46
178 1 322 98 437 292 138 234 147 396 25 450 -81 36 -193 26 -317 -27 -18 -8
-18 -3 -12 123 l8 131 -29 14 c-78 40 -273 57 -741 64 l-403 6 -25 33 c-46 59
-44 158 2 214 l26 30 24 -49 c28 -56 93 -120 151 -149 51 -27 155 -45 207 -37
149 23 236 91 236 184 0 39 -5 49 -44 87 -108 103 -330 121 -494 39 -37 -19
-69 -32 -72 -29 -3 3 -5 56 -5 117 0 107 2 116 33 180 18 37 37 67 42 67 5 0
28 -18 52 -40 82 -76 179 -113 228 -88 36 19 70 75 70 116 0 55 -35 117 -77
137 -60 29 -151 5 -241 -62 l-32 -24 -15 35 c-39 93 0 156 186 301 174 137
219 203 205 300 -18 114 -121 175 -222 131z m116 -699 c50 -25 75 -114 48
-172 -13 -28 -55 -55 -85 -55 -32 0 -117 47 -168 93 -56 50 -55 57 12 99 75
46 146 59 193 35z m107 -433 c62 -20 127 -72 140 -111 34 -99 -92 -188 -262
-188 -97 1 -171 31 -233 94 -50 51 -88 127 -72 146 15 18 121 64 172 75 61 13
194 5 255 -16z m58 -384 c358 -12 651 -43 595 -63 -31 -11 -263 -27 -397 -27
-152 0 -436 16 -524 30 -66 10 -161 48 -153 61 7 11 105 11 479 -1z m-472 -30
c66 -37 122 -49 310 -65 l152 -12 -405 -2 c-450 -1 -619 9 -658 40 -14 10 -34
19 -46 20 -49 2 44 19 159 29 190 16 194 17 318 18 113 2 119 1 170 -28z
m-581 -105 c4 -16 12 -112 17 -214 19 -339 82 -598 190 -784 43 -72 32 -76
-30 -10 -189 199 -270 451 -286 895 l-6 176 53 -17 c44 -15 55 -23 62 -46z
m1685 -37 c-4 -46 -7 -99 -7 -120 0 -27 -9 -47 -35 -78 -29 -35 -35 -50 -35
-90 0 -32 6 -55 19 -72 11 -14 18 -33 16 -44 -22 -107 -42 -181 -67 -242 l-31
-74 -51 8 c-147 22 -244 -25 -308 -149 -28 -55 -35 -142 -15 -189 15 -35 14
-36 -6 -42 -33 -9 -746 -20 -797 -12 -40 6 -50 13 -85 61 -152 208 -233 497
-250 894 -4 85 -11 168 -16 184 l-8 29 47 -6 c26 -3 216 -8 422 -12 425 -8
1054 10 1204 35 5 0 6 -34 3 -81z m318 -126 c120 -41 127 -164 19 -372 -117
-226 -240 -325 -420 -337 l-71 -5 -73 -80 c-75 -83 -108 -101 -47 -26 19 24
59 78 89 122 l53 78 73 19 c135 34 185 67 253 165 49 71 102 192 107 243 4 43
1 50 -23 69 -51 41 -86 30 -226 -66 -34 -23 -63 -41 -65 -40 -1 2 3 43 9 91
l10 88 39 20 c46 23 139 47 188 48 19 0 57 -8 85 -17z m-342 -157 c-10 -72
-27 -78 -31 -12 -2 34 2 57 15 75 22 34 26 18 16 -63z m292 22 c15 -11 17 -23
12 -62 -7 -69 -88 -224 -151 -290 -45 -46 -61 -56 -134 -79 -78 -24 -112 -31
-112 -22 0 2 12 30 26 62 14 33 36 105 49 161 25 109 30 123 47 123 6 0 40 22
77 49 36 26 75 53 86 59 28 16 77 15 100 -1z m-472 -466 c21 -5 41 -12 44 -14
11 -12 -229 -332 -259 -345 -39 -17 34 -22 328 -22 375 0 375 0 245 -61 -147
-70 -334 -119 -604 -159 -120 -17 -147 -24 -136 -34 8 -8 297 15 389 30 120
20 257 61 385 114 55 23 107 44 115 47 34 11 -102 -70 -185 -111 -239 -118
-413 -144 -1040 -153 -625 -9 -871 24 -1130 155 -103 51 -277 173 -265 185 3
3 183 -2 400 -10 446 -16 1181 -21 1342 -9 l106 8 -19 41 c-42 93 -11 208 75
284 64 56 128 72 209 54z m612 -373 c-100 -59 -414 -176 -543 -203 -121 -25
-125 -16 -7 15 190 49 363 119 402 162 15 17 15 20 3 28 -10 6 16 10 75 10 73
-1 86 -3 70 -12z m415 -23 c7 -9 11 -18 8 -21 -7 -7 -58 17 -58 28 0 14 37 9
50 -7z m-1087 -202 c-7 -2 -19 -2 -25 0 -7 3 -2 5 12 5 14 0 19 -2 13 -5z"/>
</g>
</svg>
